<?xml version="1.0" standalone="no"?>
<!DOCTYPE svg PUBLIC "-//W3C//DTD SVG 20010904//EN"
 "http://www.w3.org/TR/2001/REC-SVG-20010904/DTD/svg10.dtd">
<svg version="1.0" xmlns="http://www.w3.org/2000/svg"
 width="860.000000pt" height="860.000000pt" viewBox="0 0 860.000000 860.000000"
 preserveAspectRatio="xMidYMid meet">

<g transform="translate(0.000000,860.000000) scale(0.100000,-0.100000)"
fill="#000000" stroke="none">
<path d="M4015 8189 c-1277 -98 -2407 -797 -3064 -1894 -497 -830 -665 -1823
-470 -2780 217 -1062 875 -1993 1809 -2556 835 -503 1833 -674 2795 -478 1185
242 2199 1032 2726 2124 654 1356 472 2955 -470 4135 -562 703 -1373 1199
-2256 1379 -349 71 -729 96 -1070 70z m385 -1215 c57 -34 60 -50 60 -308 l0
-236 238 0 c220 0 239 -2 270 -20 46 -28 65 -78 60 -162 -3 -61 -7 -72 -36
-101 l-32 -32 -248 -5 -247 -5 -3 -366 -2 -366 930 -837 c512 -461 942 -850
956 -864 50 -54 69 -110 69 -202 0 -100 -21 -154 -86 -219 -66 -66 -119 -86
-224 -86 -73 0 -98 4 -135 22 -28 14 -355 305 -858 762 l-814 740 -631 -577
c-347 -317 -711 -650 -808 -739 -98 -89 -197 -172 -221 -184 -28 -14 -68 -24
-114 -27 -94 -6 -158 15 -224 75 -138 124 -147 324 -22 451 26 26 456 416 955
867 l907 819 -2 366 -3 365 -245 5 c-173 4 -252 9 -267 18 -36 20 -53 64 -53
139 0 79 13 109 59 140 33 22 41 23 272 23 l239 0 0 240 c0 262 2 274 59 305
37 20 165 20 201 -1z m600 -3195 c382 -348 707 -641 723 -652 l27 -21 0 -626
0 -627 -30 -61 c-35 -69 -92 -125 -159 -156 -44 -20 -63 -21 -413 -24 l-367
-3 -3 338 c-4 384 -5 393 -93 512 -84 114 -208 179 -356 188 -230 14 -416
-107 -490 -318 -21 -60 -23 -83 -27 -391 l-4 -328 -349 0 c-332 0 -351 1 -406
21 -72 28 -144 94 -180 168 l-28 56 -3 620 -2 620 52 41 c29 23 356 319 726
658 371 339 677 616 681 616 4 0 319 -284 701 -631z"/>
</g>
</svg>
